<?xml version="1.0" encoding="UTF-8"?>
<svg id="Layer_2" data-name="Layer 2" xmlns="http://www.w3.org/2000/svg" viewBox="0 0 752.25 221.3">
  <defs>
    <style>
      .cls-1 {
        fill: #081344;
      }

      .cls-2 {
        fill: #333;
      }

      .cls-3 {
        fill: #009eff;
      }
    </style>
  </defs>
  <g id="Layer_1-2" data-name="Layer 1">
    <g>
      <g>
        <path class="cls-1" d="M201.83,52.95l-43.34,3.39c-.27,1.14-.4,2.39-.4,3.77v93.76c0,3.77,1,6.63,2.99,8.59,2,1.96,4.84,2.93,8.53,2.93h22.48c3.76,0,6.63-.98,8.58-2.93,1.96-1.96,2.94-4.82,2.94-8.59V60.11c0-2.94-.59-5.33-1.79-7.16Z"/>
        <path class="cls-1" d="M254.18,116.82c.75,6.18,3.65,11.03,8.7,14.57,5.04,3.54,11.11,5.31,18.19,5.31,7.76,0,14.99-2.37,21.69-7.12,1.73-1.2,3.16-2.05,4.29-2.54,1.13-.49,2.49-.6,4.07-.34,1.58.26,3.12,1.15,4.63,2.65l9.26,9.71c4.14,4.14,4.29,8.28.45,12.43-4.67,5.05-11.73,9.13-21.18,12.26-9.45,3.12-19.11,4.69-28.98,4.69-19.05,0-34.62-5.76-46.71-17.28-12.09-11.52-18.13-26.21-18.13-44.06s5.91-32.01,17.74-43.38c11.82-11.37,26.96-17.06,45.41-17.06,9.19,0,17.66,1.51,25.42,4.52,7.76,3.01,14.19,7.08,19.32,12.2,5.2,5.2,9.26,11.45,12.2,18.75,2.94,7.31,4.41,14.91,4.41,22.82,0,4.59-.73,7.72-2.2,9.38-1.47,1.66-4.5,2.49-9.09,2.49h-69.47ZM272.48,77.28c-4.97,0-9.06,1.45-12.26,4.35-3.2,2.9-5.22,6.83-6.04,11.81h36.83c-.68-4.52-2.45-8.21-5.31-11.07-3.61-3.39-8.02-5.08-13.22-5.08Z"/>
        <path class="cls-1" d="M352.97,165.39c-3.69,0-6.53-.98-8.53-2.94-2-1.96-2.99-4.82-2.99-8.59V16.17c0-3.69.92-6.38,2.77-8.08,1.84-1.69,4.76-2.92,8.75-3.67L375.45.24c3.61-.68,6.44.1,8.47,2.32,2.03,2.22,3.05,5.29,3.05,9.21v142.11c0,3.77-.98,6.63-2.94,8.59-1.96,1.96-4.82,2.94-8.59,2.94h-22.48Z"/>
        <path class="cls-1" d="M448.27,168.67c-10.17,0-19.84-1.62-29.03-4.86-9.19-3.24-16.27-7.04-21.24-11.41-3.09-2.79-4.78-5.37-5.08-7.74-.3-2.37.94-5.33,3.73-8.87l6.66-8.36c1.81-2.26,3.75-3.67,5.82-4.24,2.07-.56,3.93-.56,5.59,0,1.66.57,3.5,1.53,5.54,2.88,9.86,6.18,19.43,9.26,28.69,9.26,4.89,0,7.34-1.47,7.34-4.41,0-.9-.3-1.73-.9-2.49-.6-.75-1.51-1.41-2.71-1.98-1.21-.57-2.34-1.03-3.39-1.41-1.06-.38-2.41-.83-4.07-1.36-3.99-1.13-7.19-2.07-9.6-2.82-2.41-.75-5.48-1.83-9.21-3.22-3.73-1.39-6.72-2.73-8.98-4.01-2.26-1.28-4.73-2.95-7.4-5.03-2.67-2.07-4.76-4.24-6.27-6.5-1.51-2.26-2.77-4.95-3.78-8.08-1.02-3.12-1.53-6.5-1.53-10.11,0-11.52,4.5-20.65,13.5-27.39,9-6.74,21.1-10.11,36.32-10.11,8.51,0,16.98,1.24,25.42,3.73,8.43,2.49,14.69,5.35,18.75,8.59,3.09,2.49,4.73,4.93,4.91,7.34.19,2.41-1.15,5.57-4.01,9.49l-5.54,7.46c-2.11,2.71-4.69,4.18-7.74,4.41-3.05.23-5.89-.56-8.53-2.37-7.38-4.44-14.91-6.66-22.59-6.66-2.49,0-4.42.38-5.82,1.13-1.39.75-2.09,1.69-2.09,2.82,0,.9.4,1.73,1.19,2.49.79.75,2.07,1.47,3.84,2.15,1.77.68,3.58,1.3,5.42,1.86,1.84.56,4.31,1.32,7.4,2.26,3.09.94,5.84,1.86,8.25,2.77,10.24,3.69,18.09,8.42,23.55,14.18,5.46,5.76,8.19,13.24,8.19,22.42,0,11.97-4.61,21.33-13.84,28.07-9.23,6.74-21.48,10.11-36.77,10.11Z"/>
        <path class="cls-1" d="M544.13,116.82c.75,6.18,3.65,11.03,8.7,14.57,5.04,3.54,11.11,5.31,18.19,5.31,7.76,0,14.99-2.37,21.69-7.12,1.73-1.2,3.16-2.05,4.29-2.54,1.13-.49,2.49-.6,4.07-.34,1.58.26,3.12,1.15,4.63,2.65l9.26,9.71c4.14,4.14,4.29,8.28.45,12.43-4.67,5.05-11.73,9.13-21.18,12.26-9.45,3.12-19.11,4.69-28.98,4.69-19.05,0-34.62-5.76-46.71-17.28-12.09-11.52-18.13-26.21-18.13-44.06s5.91-32.01,17.74-43.38c11.82-11.37,26.96-17.06,45.41-17.06,9.19,0,17.66,1.51,25.42,4.52,7.76,3.01,14.19,7.08,19.32,12.2,5.2,5.2,9.26,11.45,12.2,18.75,2.94,7.31,4.41,14.91,4.41,22.82,0,4.59-.73,7.72-2.2,9.38-1.47,1.66-4.5,2.49-9.09,2.49h-69.47ZM562.43,77.28c-4.97,0-9.06,1.45-12.26,4.35-3.2,2.9-5.22,6.83-6.04,11.81h36.83c-.68-4.52-2.45-8.21-5.31-11.07-3.61-3.39-8.02-5.08-13.22-5.08Z"/>
        <path class="cls-1" d="M703.81,46.67c14.23,0,25.85,4.65,34.85,13.95,9,9.3,13.5,21.63,13.5,37v56.26c0,3.77-1.02,6.63-3.05,8.59-2.03,1.96-4.97,2.94-8.81,2.94h-22.37c-3.77,0-6.65-1-8.64-2.99-2-1.99-2.99-4.84-2.99-8.53v-52.98c0-4.59-1.34-8.38-4.01-11.35-2.67-2.97-6.27-4.46-10.79-4.46s-8.12,1.49-10.79,4.46c-2.67,2.98-4.01,6.76-4.01,11.35v52.98c0,3.77-.98,6.63-2.94,8.59-1.96,1.96-4.82,2.94-8.59,2.94h-22.48c-3.69,0-6.53-.98-8.53-2.94-2-1.96-2.99-4.82-2.99-8.59V60.11c0-3.77,1-6.63,2.99-8.59,1.99-1.96,4.84-2.94,8.53-2.94h14.12c3.76,0,6.63.98,8.59,2.94,1.96,1.96,2.94,4.82,2.94,8.59v4.86c8.59-12.2,20.41-18.3,35.47-18.3Z"/>
      </g>
      <g>
        <path class="cls-2" d="M41.12,209.27l-3.11,11.31h-10.3l13.45-44.06h13.04l13.71,44.06h-10.73l-3.39-11.31h-12.67ZM52.32,201.85l-2.74-9.36c-.76-2.6-1.54-5.91-2.21-8.48h-.14c-.65,2.59-1.31,5.94-2.02,8.49l-2.63,9.35h9.75Z"/>
        <path class="cls-2" d="M98.13,201.94h-16.21v10.48h18.12v8.16h-28.08v-44.06h27.14v8.16h-17.18v9.18h16.21v8.08Z"/>
        <path class="cls-2" d="M105.04,177.13c3.2-.54,7.94-.95,13.24-.95,6.53,0,11.11,1,14.26,3.49,2.63,2.09,4.08,5.18,4.08,9.24,0,5.58-3.99,9.47-7.78,10.83v.21c3.06,1.23,4.78,4.16,5.89,8.2,1.36,4.99,2.69,10.73,3.56,12.43h-10.2c-.68-1.27-1.78-4.82-3.03-10.27-1.23-5.51-3.08-6.98-7.18-7.03h-2.96v17.3h-9.87v-43.45ZM114.91,196.08h3.9c4.94,0,7.9-2.52,7.9-6.35,0-4.03-2.76-6.1-7.31-6.12-2.38,0-3.78.16-4.48.33v12.14Z"/>
        <path class="cls-2" d="M182,198.11c0,14.45-8.72,23.19-21.6,23.19s-20.75-9.88-20.75-22.45,8.47-23.05,21.44-23.05,20.91,10.12,20.91,22.31ZM150.17,198.66c0,8.63,4.07,14.72,10.71,14.72s10.58-6.36,10.58-14.93c0-7.94-3.75-14.72-10.61-14.72s-10.69,6.37-10.69,14.94Z"/>
        <path class="cls-2" d="M187.07,210.3c2.64,1.42,6.78,2.77,11.04,2.77,4.58,0,7-1.9,7-4.8,0-2.71-2.1-4.3-7.38-6.16-7.35-2.61-12.15-6.61-12.15-13.05,0-7.51,6.31-13.22,16.66-13.22,5.02,0,8.65,1,11.25,2.22l-2.2,7.99c-1.75-.83-4.92-2.09-9.2-2.09s-6.41,2.01-6.41,4.26c0,2.8,2.44,4.04,8.16,6.19,7.8,2.92,11.41,6.96,11.41,13.19,0,7.36-5.63,13.67-17.76,13.67-4.99,0-9.99-1.36-12.44-2.74l2.01-8.23Z"/>
        <path class="cls-2" d="M220.21,177.11c3.06-.51,7.38-.93,13.45-.93s10.53,1.19,13.48,3.56c2.82,2.19,4.67,5.87,4.67,10.19s-1.4,8-4.02,10.43c-3.4,3.2-8.48,4.67-14.31,4.67-1.32,0-2.5-.09-3.4-.23v15.77h-9.87v-43.47ZM230.08,197.09c.83.19,1.85.26,3.31.26,5.29,0,8.56-2.68,8.56-7.14,0-4.05-2.77-6.47-7.8-6.47-1.97,0-3.34.16-4.07.33v13.02Z"/>
        <path class="cls-2" d="M262.64,209.27l-3.11,11.31h-10.3l13.45-44.06h13.04l13.71,44.06h-10.73l-3.39-11.31h-12.67ZM273.83,201.85l-2.74-9.36c-.76-2.6-1.54-5.91-2.21-8.48h-.14c-.65,2.59-1.31,5.94-2.02,8.49l-2.63,9.35h9.75Z"/>
        <path class="cls-2" d="M324.16,219.37c-1.78.88-5.96,1.9-11.26,1.9-15.25,0-23.12-9.53-23.12-22.09,0-15.02,10.76-23.34,24.06-23.34,5.18,0,9.11,1.01,10.84,1.95l-2.03,7.88c-1.98-.87-4.81-1.65-8.37-1.65-7.86,0-14.02,4.79-14.02,14.58,0,8.83,5.21,14.38,14.08,14.38,3.05,0,6.35-.6,8.33-1.42l1.49,7.81Z"/>
        <path class="cls-2" d="M355.08,201.94h-16.21v10.48h18.12v8.16h-28.08v-44.06h27.14v8.16h-17.18v9.18h16.21v8.08Z"/>
      </g>
      <g>
        <path class="cls-2" d="M413.15,201.94h-16.21v10.48h18.12v8.16h-28.08v-44.06h27.14v8.16h-17.18v9.18h16.21v8.08Z"/>
        <path class="cls-2" d="M420.06,220.58v-44.06h11.6l9.15,16.16c2.64,4.62,5.21,10.13,7.2,15.11l.17-.02c-.61-5.83-.8-11.75-.8-18.41v-12.84h9.14v44.06h-10.43l-9.44-16.97c-2.63-4.75-5.52-10.4-7.65-15.56l-.22.02c.31,5.84.43,12.07.43,19.27v13.24h-9.14Z"/>
        <path class="cls-2" d="M471.83,184.89h-11.89v-8.36h33.91v8.36h-12.06v35.69h-9.96v-35.69Z"/>
        <path class="cls-2" d="M523.49,201.94h-16.21v10.48h18.12v8.16h-28.08v-44.06h27.14v8.16h-17.18v9.18h16.21v8.08Z"/>
        <path class="cls-2" d="M530.39,177.13c3.2-.54,7.94-.95,13.24-.95,6.53,0,11.11,1,14.26,3.49,2.63,2.09,4.08,5.18,4.08,9.24,0,5.58-3.99,9.47-7.78,10.83v.21c3.06,1.23,4.78,4.16,5.89,8.2,1.36,4.99,2.69,10.73,3.56,12.43h-10.2c-.68-1.27-1.78-4.82-3.03-10.27-1.23-5.51-3.08-6.98-7.18-7.03h-2.96v17.3h-9.87v-43.45ZM540.26,196.08h3.9c4.94,0,7.9-2.52,7.9-6.35,0-4.03-2.76-6.1-7.31-6.12-2.38,0-3.78.16-4.48.33v12.14Z"/>
        <path class="cls-2" d="M567.32,177.11c3.06-.51,7.38-.93,13.45-.93s10.53,1.19,13.48,3.56c2.82,2.19,4.67,5.87,4.67,10.19s-1.4,8-4.02,10.43c-3.4,3.2-8.48,4.67-14.31,4.67-1.32,0-2.5-.09-3.4-.23v15.77h-9.87v-43.47ZM577.19,197.09c.83.19,1.85.26,3.31.26,5.29,0,8.56-2.68,8.56-7.14,0-4.05-2.77-6.47-7.8-6.47-1.97,0-3.34.16-4.07.33v13.02Z"/>
        <path class="cls-2" d="M603.47,177.13c3.2-.54,7.94-.95,13.24-.95,6.53,0,11.11,1,14.26,3.49,2.63,2.09,4.08,5.18,4.08,9.24,0,5.58-3.99,9.47-7.78,10.83v.21c3.06,1.23,4.78,4.16,5.89,8.2,1.36,4.99,2.69,10.73,3.56,12.43h-10.2c-.68-1.27-1.78-4.82-3.03-10.27-1.23-5.51-3.08-6.98-7.18-7.03h-2.96v17.3h-9.87v-43.45ZM613.34,196.08h3.9c4.94,0,7.9-2.52,7.9-6.35,0-4.03-2.76-6.1-7.31-6.12-2.38,0-3.78.16-4.48.33v12.14Z"/>
        <path class="cls-2" d="M650.36,176.53v44.06h-9.96v-44.06h9.96Z"/>
        <path class="cls-2" d="M657.52,210.3c2.64,1.42,6.78,2.77,11.04,2.77,4.58,0,7-1.9,7-4.8,0-2.71-2.1-4.3-7.38-6.16-7.35-2.61-12.15-6.61-12.15-13.05,0-7.51,6.31-13.22,16.66-13.22,5.02,0,8.65,1,11.25,2.22l-2.2,7.99c-1.75-.83-4.92-2.09-9.2-2.09s-6.41,2.01-6.41,4.26c0,2.8,2.44,4.04,8.16,6.19,7.8,2.92,11.41,6.96,11.41,13.19,0,7.36-5.63,13.67-17.76,13.67-4.99,0-9.99-1.36-12.44-2.74l2.01-8.23Z"/>
        <path class="cls-2" d="M716.83,201.94h-16.21v10.48h18.12v8.16h-28.08v-44.06h27.14v8.16h-17.18v9.18h16.21v8.08Z"/>
        <path class="cls-2" d="M724.06,210.3c2.64,1.42,6.78,2.77,11.04,2.77,4.58,0,7-1.9,7-4.8,0-2.71-2.1-4.3-7.38-6.16-7.35-2.61-12.15-6.61-12.15-13.05,0-7.51,6.31-13.22,16.66-13.22,5.02,0,8.65,1,11.25,2.22l-2.2,7.99c-1.75-.83-4.92-2.09-9.2-2.09s-6.41,2.01-6.41,4.26c0,2.8,2.44,4.04,8.16,6.19,7.8,2.92,11.41,6.96,11.41,13.19,0,7.36-5.63,13.67-17.76,13.67-4.99,0-9.99-1.36-12.44-2.74l2.01-8.23Z"/>
      </g>
      <path class="cls-1" d="M62.31,49.92c-1.99-1.98-4.89-2.98-8.71-2.98h-14.32c-3.74,0-6.63.99-8.65,2.98-2.02,1.99-3.04,4.89-3.04,8.71v26.65c2.08-2.65,4.25-5.28,6.5-7.89,8.97-10.4,18.71-19.72,28.4-27.27-.05-.07-.12-.13-.19-.2ZM136.6,59.14c-8.54-8.82-19.4-13.51-32.57-14.09-14.09,3.7-34.04,17.9-51.99,42.69-11.24,15.51-19.3,32.15-22.7,46.83-3.01,13.03-2.04,23.29,2.68,28.16l1.59,1.64c1.6.68,3.49,1.02,5.67,1.02h22.8c3.82,0,6.72-.99,8.71-2.98,1.98-1.99,2.98-4.89,2.98-8.71v-53.73c0-4.66,1.35-8.5,4.07-11.51,2.71-3.02,6.36-4.53,10.94-4.53s8.23,1.51,10.94,4.53c2.71,3.02,4.07,6.85,4.07,11.51v53.73c0,3.74,1.01,6.63,3.04,8.65,2.02,2.03,4.94,3.04,8.76,3.04h22.68c3.9,0,6.87-.99,8.94-2.98,2.06-1.99,3.09-4.89,3.09-8.71v-57.05c0-15.58-4.56-28.09-13.69-37.52Z"/>
      <path class="cls-3" d="M128.49,26.27c1.34,0,1.41,1.97.08,2.11-8.36.88-18.01,4.25-28.14,9.78-5,2.73-10.12,5.98-15.25,9.73-1.23.89-2.46,1.81-3.69,2.76-8.05,6.2-16.09,13.57-23.76,21.95-11.09,12.11-20.03,24.82-26.42,36.96-11.58,22-14.84,42.16-7.54,53.62.43.67,0,1.56-.8,1.63-8.16.79-14.67-.84-18.69-5.22-11.76-12.77,1.54-44.74,30.02-75.96,4.54-4.98,9.48-9.95,14.76-14.81,10.97-10.1,22.25-18.68,33.09-25.42,17.75-11.05,34.3-17.21,46.34-17.15Z"/>
      <path class="cls-3" d="M205.5,44.54l-56.11,4.39s-.09,0-.13,0c-1.05,0-1.81-1.03-1.48-2.06,2.1-6.63,2.12-15.34-.44-24.28-1.61-5.63-4.03-10.65-6.92-14.71-.8-1.12.11-2.49,1.26-2.49.25,0,.52.07.79.21l5.26,2.98,27.51,15.56,30.91,17.47c1.35.77.89,2.81-.65,2.93Z"/>
    </g>
  </g>
</svg>