<?xml version="1.0" encoding="UTF-8"?>
<svg id="Layer_2" data-name="Layer 2" xmlns="http://www.w3.org/2000/svg" viewBox="0 0 296.59 269.84">
  <defs>
    <style>
      .cls-1 {
        fill: #081344;
      }

      .cls-2 {
        fill: #009eff;
      }
    </style>
  </defs>
  <g id="Layer_1-2" data-name="Layer 1">
    <g>
      <path class="cls-1" d="M122.96,41.95c-3.93-3.91-9.65-5.88-17.18-5.88h-28.26c-7.39,0-13.08,1.96-17.07,5.88-3.99,3.93-5.99,9.65-5.99,17.18v52.59c4.11-5.23,8.38-10.43,12.82-15.56,17.7-20.52,36.92-38.91,56.05-53.82-.11-.14-.24-.27-.37-.39ZM269.58,60.15c-16.85-17.4-38.28-26.67-64.28-27.8-27.82,7.31-67.17,35.32-102.61,84.24-22.18,30.62-38.09,63.45-44.8,92.42-5.95,25.72-4.02,45.97,5.3,55.58l3.14,3.25c3.15,1.34,6.89,2.01,11.19,2.01h44.99c7.53,0,13.26-1.96,17.18-5.88,3.91-3.92,5.88-9.64,5.88-17.18v-106.03c0-9.19,2.67-16.77,8.03-22.72,5.35-5.95,12.55-8.94,21.59-8.94s16.24,2.98,21.6,8.94c5.35,5.95,8.03,13.53,8.03,22.72v106.03c0,7.39,1.99,13.08,5.99,17.07,3.99,4,9.76,5.99,17.3,5.99h44.76c7.69,0,13.56-1.96,17.63-5.88,4.07-3.92,6.1-9.64,6.1-17.18v-112.59c0-30.75-9.01-55.43-27.01-74.05Z"/>
      <path class="cls-2" d="M223.54.15c4-1.18,5.88,4.72,1.96,6.14-8.78,3.18-17.93,7.35-27.29,12.47-9.87,5.39-19.96,11.81-30.1,19.2-2.42,1.76-4.85,3.57-7.28,5.46-15.88,12.25-31.75,26.78-46.89,43.31-21.89,23.9-39.52,48.98-52.14,72.94-22.36,42.47-29,81.46-15.8,104.31,1.2,2.08-.12,4.71-2.52,4.89-15.24,1.14-27.41-2.16-35.04-10.45-23.2-25.19,3.03-88.3,59.25-149.9,8.97-9.83,18.71-19.63,29.14-29.23,21.65-19.94,43.92-36.86,65.3-50.16C184.06,15.46,205.07,5.59,223.54.15Z"/>
    </g>
  </g>
</svg>